<svg id="visual" viewBox="0 0 960 540" width="960" height="540" xmlns="http://www.w3.org/2000/svg" xmlns:xlink="http://www.w3.org/1999/xlink" version="1.1"><path d="M0 494L31 495L62 482L93 479L124 488L155 486L186 487L217 482L248 476L279 494L310 490L341 490L372 478L403 493L434 490L465 493L495 491L526 493L557 493L588 492L619 478L650 477L681 488L712 477L743 479L774 478L805 489L836 494L867 481L898 482L929 486L960 476L960 541L929 541L898 541L867 541L836 541L805 541L774 541L743 541L712 541L681 541L650 541L619 541L588 541L557 541L526 541L495 541L465 541L434 541L403 541L372 541L341 541L310 541L279 541L248 541L217 541L186 541L155 541L124 541L93 541L62 541L31 541L0 541Z" fill="#ffffff" stroke-linecap="square" stroke-linejoin="bevel"></path></svg>