<svg id="visual" viewBox="0 0 960 540" width="960" height="540" xmlns="http://www.w3.org/2000/svg" xmlns:xlink="http://www.w3.org/1999/xlink" version="1.1"><path d="M0 478L31 490L62 494L93 482L124 489L155 475L186 491L217 483L248 485L279 494L310 486L341 480L372 490L403 482L434 493L465 475L495 478L526 483L557 491L588 492L619 484L650 489L681 495L712 490L743 486L774 495L805 484L836 494L867 481L898 480L929 487L960 491" fill="none" stroke-linecap="square" stroke-linejoin="bevel" stroke="#d8e0ec" stroke-width="40"></path></svg>